<?xml version="1.0" ?><svg height="28px" version="1.1" viewBox="0 0 28 28" width="28px" xmlns="http://www.w3.org/2000/svg" xmlns:sketch="http://www.bohemiancoding.com/sketch/ns" xmlns:xlink="http://www.w3.org/1999/xlink"><title/><desc/><defs/><g fill="none" fill-rule="evenodd" id="Page-1" stroke="none" stroke-width="1"><g id="Symbolicons-Color" transform="translate(-252.000000, -308.000000)"><g id="record-player" transform="translate(252.000000, 308.000000)"><path d="M28,24 C28,26.2 26.2,28 24,28 L4,28 C1.8,28 0,26.2 0,24 L0,4 C0,1.8 1.8,0 4,0 L24,0 C26.2,0 28,1.8 28,4 L28,24" fill="#BEBEBE" id="Fill-701"/><path d="M22,12.5 C22,18.299 17.299,23 11.5,23 C5.701,23 1,18.299 1,12.5 C1,6.701 5.701,2 11.5,2 C17.299,2 22,6.701 22,12.5" fill="#505050" id="Fill-702"/><path d="M16,12.5 C16,14.985 13.985,17 11.5,17 C9.015,17 7,14.985 7,12.5 C7,10.015 9.015,8 11.5,8 C13.985,8 16,10.015 16,12.5" fill="#8C8C8C" id="Fill-703"/><path d="M13,12.5 C13,13.328 12.328,14 11.5,14 C10.672,14 10,13.328 10,12.5 C10,11.672 10.672,11 11.5,11 C12.328,11 13,11.672 13,12.5" fill="#505050" id="Fill-704"/><path d="M12,12.5 C12,12.776 11.776,13 11.5,13 C11.224,13 11,12.776 11,12.5 C11,12.224 11.224,12 11.5,12 C11.776,12 12,12.224 12,12.5" fill="#FFFFFF" id="Fill-705"/><path d="M20,24.5 C19.899,24.5 19.798,24.47 19.709,24.407 C19.484,24.247 19.433,23.934 19.593,23.709 L24.5,16.84 L24.5,7 C24.5,6.724 24.724,6.5 25,6.5 C25.276,6.5 25.5,6.724 25.5,7 L25.5,17.16 L20.407,24.29 C20.31,24.427 20.155,24.5 20,24.5" fill="#A0A0A0" id="Fill-706"/><path d="M25,7.5 C24.173,7.5 23.5,6.827 23.5,6 C23.5,5.173 24.173,4.5 25,4.5 C25.827,4.5 26.5,5.173 26.5,6 C26.5,6.827 25.827,7.5 25,7.5" fill="#FFFFFF" id="Fill-707"/><path d="M25,5 C25.552,5 26,5.449 26,6 C26,6.551 25.552,7 25,7 C24.448,7 24,6.551 24,6 C24,5.449 24.448,5 25,5 M25,4 C23.896,4 23,4.895 23,6 C23,7.104 23.896,8 25,8 C26.105,8 27,7.104 27,6 C27,4.895 26.105,4 25,4" fill="#505050" id="Fill-708"/><path d="M21.929,23.872 L19.487,22.128 L22.487,17.928 L24.929,19.672 L21.929,23.872" fill="#505050" id="Fill-709"/><path d="M5,24.5 C5,25.328 4.328,26 3.5,26 C2.671,26 2,25.328 2,24.5 C2,23.672 2.671,23 3.5,23 C4.328,23 5,23.672 5,24.5" fill="#1EAAE1" id="Fill-710"/></g></g></g></svg>