<?xml version="1.0" encoding="utf-8"?>
<!-- Generator: Adobe Illustrator 19.0.0, SVG Export Plug-In . SVG Version: 6.00 Build 0)  -->
<svg version="1.1" id="Layer_1" xmlns="http://www.w3.org/2000/svg" xmlns:xlink="http://www.w3.org/1999/xlink" x="0px" y="0px"
	 viewBox="30.5 14.5 330.9 370.9" enable-background="new 30.5 14.5 330.9 370.9" xml:space="preserve">
<g>
	<path fill="#FFFFFF" d="M234.1,385.5H44.3c-7.3,0-13.8-5.8-13.8-13.8V258.2c0-7.3,5.8-13.8,13.8-13.8s13.8,5.8,13.8,13.8v99.6h176
		c79.3,0,92.4-56.7,93.1-85.8h-30.5c-4.4,28.4-27.6,56-61.8,56H105.4c-7.3,0-13.8-5.8-13.8-13.8v-56c0-7.3,5.8-13.8,13.8-13.8h165.1
		v-32.7H45c-7.3,0-13.8-5.8-13.8-13.8V28.4c0-7.3,5.8-13.8,13.8-13.8h189.8c88.7,0,120.7,61.1,120.7,118.5v8.7
		c0,7.3-5.8,13.8-13.8,13.8h-43.6v29.1h49.5c7.3,0,13.8,5.8,13.8,13.8s-6.5,13.1-14.5,13.1h-49.5v32.7H341c7.3,0,13.8,5.8,13.8,13.8
		v8.7C354.8,324.4,322.8,385.5,234.1,385.5z M119.2,301.1h116.4c18.9,0,30.5-15.3,34.2-29.1H119.2V301.1z M58.1,184h212.4v-29.1
		H105.4c-7.3,0-13.8-5.8-13.8-13.8v-56c0-7.3,5.8-13.8,13.8-13.8h130.2c34.2,0,57.5,27.6,61.8,56h30.5
		c-1.5-29.1-13.8-85.8-93.1-85.8H58.1V184z M119.2,128h150.5c-3.6-13.8-15.3-29.1-34.2-29.1H119.2V128z"/>
</g>
</svg>
