<?xml version="1.0" encoding="iso-8859-1"?>
<!-- Generator: Adobe Illustrator 19.0.0, SVG Export Plug-In . SVG Version: 6.00 Build 0)  -->
<svg version="1.1" xmlns="http://www.w3.org/2000/svg" xmlns:xlink="http://www.w3.org/1999/xlink" x="0px" y="0px"
	 viewBox="0 0 35 54.971" style="enable-background:new 0 0 35 54.971;" xml:space="preserve">
<g id="Layer_2" style="display:none;">
	
		<rect id="XMLID_101_" x="-3.75" y="-5.89" style="display:inline;fill-rule:evenodd;clip-rule:evenodd;" width="42.5" height="66.75"/>
</g>
<g id="Layer_1">
	
		<rect id="XMLID_1_" x="2.344" y="7.773" style="fill-rule:evenodd;clip-rule:evenodd;fill:#FFFFFF;" width="4.389" height="39.613"/>
	
		<rect id="XMLID_2_" x="28.409" y="7.773" style="fill-rule:evenodd;clip-rule:evenodd;fill:#FFFFFF;" width="4.389" height="39.613"/>
	
		<rect id="XMLID_3_" x="11.726" y="27.561" style="fill-rule:evenodd;clip-rule:evenodd;fill:#FFFFFF;" width="17.574" height="3.666"/>
	<path id="XMLID_24_" style="fill-rule:evenodd;clip-rule:evenodd;fill:#FFFFFF;" d="M4.457,0.093c-2.46,0-4.454,1.975-4.454,4.41
		s1.994,4.41,4.454,4.41c2.46,0,4.455-1.975,4.455-4.41S6.917,0.093,4.457,0.093z M4.457,5.812c-0.73,0-1.322-0.586-1.322-1.309
		c0-0.723,0.592-1.309,1.322-1.309S5.779,3.78,5.779,4.503C5.779,5.226,5.187,5.812,4.457,5.812z"/>
	<path id="XMLID_4_" style="fill-rule:evenodd;clip-rule:evenodd;fill:#FFFFFF;" d="M30.573,46.116
		c-2.444,0-4.425,1.961-4.425,4.381c0,2.419,1.981,4.381,4.425,4.381c2.444,0,4.425-1.961,4.425-4.381
		C34.998,48.077,33.017,46.116,30.573,46.116z M30.573,51.797c-0.725,0-1.314-0.582-1.314-1.301c0-0.718,0.588-1.301,1.314-1.301
		c0.725,0,1.314,0.582,1.314,1.301C31.887,51.215,31.299,51.797,30.573,51.797z"/>
</g>
</svg>
