<svg width="54" height="54" viewBox="0 0 54 54" fill="none" xmlns="http://www.w3.org/2000/svg">
<g clip-path="url(#clip0)">
<path fill-rule="evenodd" clip-rule="evenodd" d="M2.91553 51V3H23.0108C31.3024 3 38.0383 5.14086 43.0621 9.51979C48.0845 13.8976 50.5352 19.7695 50.5352 27C50.5352 34.2305 48.0845 40.1024 43.0621 44.4802C38.0383 48.8591 31.3024 51 23.0108 51H2.91553ZM16.5859 40.2693H22.5789C27.3066 40.2693 30.762 39.0622 33.1531 36.784C35.5776 34.474 36.8648 31.2597 36.8648 27C36.8648 22.6868 35.5753 19.4494 33.1531 17.1417C30.762 14.8635 27.3066 13.6563 22.5789 13.6563H16.5859V40.2693ZM22.5789 41.4316C27.5892 41.4316 31.4478 40.1422 34.1545 37.5633C36.8612 34.9845 38.2146 31.4634 38.2146 27C38.2146 22.487 36.8612 18.9411 34.1545 16.3623C31.4478 13.7834 27.5892 12.494 22.5789 12.494H15.2362V41.4316H22.5789ZM4.26529 49.8377H23.0108C31.0158 49.8377 37.3795 47.7795 42.1019 43.6633C46.8243 39.5471 49.1855 33.9926 49.1855 27C49.1855 20.0074 46.8243 14.4529 42.1019 10.3367C37.3795 6.22046 31.0158 4.16234 23.0108 4.16234H4.26529V49.8377Z" fill="white"/>
<path d="M50.5775 3.52197H3.42261V50.4785H50.5775V3.52197Z" stroke="white"/>
<path d="M6.46488 0.391113H0.380371V6.65198H6.46488V0.391113Z" fill="#152D70" stroke="white"/>
<path d="M53.6197 0.391113H47.5352V6.65198H53.6197V0.391113Z" fill="#152D70" stroke="white"/>
<path d="M6.46488 47.3477H0.380371V53.6085H6.46488V47.3477Z" fill="#152D70" stroke="white"/>
<path d="M53.6197 47.3477H47.5352V53.6085H53.6197V47.3477Z" fill="#152D70" stroke="white"/>
</g>
<defs>
<clipPath id="clip0">
<rect width="54" height="54" fill="white"/>
</clipPath>
</defs>
</svg>
