<svg width="71" height="69" viewBox="0 0 71 69" fill="none" xmlns="http://www.w3.org/2000/svg">
<path d="M26.2893 10.1311H25.7893V10.6311V52.4858C25.7893 54.8595 26.2397 56.6328 27.3294 57.5712L27.335 57.5761L27.3408 57.5807C28.4491 58.479 30.2792 58.8689 32.6942 58.8689H33.6336C39.1291 58.8689 43.3091 56.8149 46.0898 52.6808C48.8469 48.5819 50.1887 42.4966 50.1887 34.5C50.1887 27.1372 48.4041 21.2152 44.7821 16.7874C41.1958 12.3331 36.0006 10.1311 29.2782 10.1311H26.2893ZM4.5 5.5H31.4132C42.3882 5.5 50.7684 8.00572 56.6253 12.9463L56.6271 12.9478C62.5331 17.8829 65.5 24.6818 65.5 33.4074C65.5 42.8819 62.6611 50.2466 57.032 55.5675C51.3951 60.8398 43.7855 63.5 34.146 63.5H4.5V59.183C5.75924 59.117 6.83301 58.9887 7.71571 58.7942C8.70002 58.5773 9.49133 58.2689 10.034 57.835C11.1387 56.9517 11.5882 55.2218 11.5882 52.906V16.094C11.5882 13.7782 11.1387 12.0483 10.034 11.165C9.49133 10.7311 8.70002 10.4227 7.71571 10.2058C6.83301 10.0113 5.75924 9.88296 4.5 9.81704V5.5Z" stroke="#8a959f"/>
<rect x="4.5" y="4.5" width="62" height="60" stroke="#8a959f"/>
<rect x="0.5" y="0.5" width="8" height="8" fill="#21262b" stroke="#8a959f"/>
<rect x="62.5" y="0.5" width="8" height="8" fill="#21262b" stroke="#8a959f"/>
<rect x="0.5" y="60.5" width="8" height="8" fill="#21262b" stroke="#8a959f"/>
<rect x="62.5" y="60.5" width="8" height="8" fill="#21262b" stroke="#8a959f"/>
</svg>